<?xml version="1.0" encoding="utf-8"?>
<!-- Generator: Adobe Illustrator 27.5.0, SVG Export Plug-In . SVG Version: 6.00 Build 0)  -->
<svg version="1.1" xmlns="http://www.w3.org/2000/svg" xmlns:xlink="http://www.w3.org/1999/xlink" x="0px" y="0px"
	 viewBox="0 0 500 500" style="enable-background:new 0 0 500 500;" xml:space="preserve">
<g id="Background_Complete">
	<g>
		<rect y="382.398" style="fill:#EBEBEB;" width="500" height="0.25"/>
		<rect x="416.779" y="398.494" style="fill:#EBEBEB;" width="33.122" height="0.25"/>
		<rect x="322.527" y="401.208" style="fill:#EBEBEB;" width="8.693" height="0.25"/>
		<rect x="396.586" y="389.208" style="fill:#EBEBEB;" width="19.192" height="0.25"/>
		<rect x="52.459" y="390.888" style="fill:#EBEBEB;" width="43.193" height="0.25"/>
		<rect x="104.556" y="390.888" style="fill:#EBEBEB;" width="6.333" height="0.25"/>
		<rect x="131.471" y="395.111" style="fill:#EBEBEB;" width="93.676" height="0.25"/>
		<path style="fill:#EBEBEB;" d="M237.014,337.8H43.915c-3.147,0-5.708-2.561-5.708-5.708V60.66c0-3.147,2.561-5.708,5.708-5.708
			h193.099c3.146,0,5.707,2.561,5.707,5.708v271.432C242.721,335.239,240.16,337.8,237.014,337.8z M43.915,55.203
			c-3.01,0-5.458,2.448-5.458,5.458v271.432c0,3.01,2.448,5.458,5.458,5.458h193.099c3.009,0,5.457-2.448,5.457-5.458V60.66
			c0-3.009-2.448-5.458-5.457-5.458H43.915z"/>
		<path style="fill:#EBEBEB;" d="M453.31,337.8H260.212c-3.147,0-5.707-2.561-5.707-5.708V60.66c0-3.147,2.561-5.708,5.707-5.708
			H453.31c3.148,0,5.708,2.561,5.708,5.708v271.432C459.019,335.239,456.458,337.8,453.31,337.8z M260.212,55.203
			c-3.009,0-5.457,2.448-5.457,5.458v271.432c0,3.01,2.448,5.458,5.457,5.458H453.31c3.01,0,5.458-2.448,5.458-5.458V60.66
			c0-3.009-2.448-5.458-5.458-5.458H260.212z"/>
	</g>
	<g>
		<g>
			<rect x="364.543" y="86.465" style="fill:#F5F5F5;" width="48.729" height="59.987"/>
			<rect x="367.406" y="89.33" style="fill:#EBEBEB;" width="42.997" height="54.255"/>
			<path style="fill:#E0E0E0;" d="M405.19,129.892v13.693h-32.57v-13.693c0-7.433,5.385-13.607,12.461-14.853
				c-3.896-1.533-6.674-5.328-6.674-9.768c0-5.801,4.698-10.498,10.499-10.498s10.498,4.698,10.498,10.498
				c0,4.44-2.764,8.236-6.674,9.768C399.804,116.285,405.19,122.458,405.19,129.892z"/>
		</g>
		<g>
			<rect x="85.942" y="100.442" style="fill:#E0E0E0;" width="40.572" height="27.237"/>
			<polygon style="fill:#EBEBEB;" points="106.228,91.812 73.67,100.442 106.228,109.072 138.787,100.442 			"/>
			<path style="fill:#F5F5F5;" d="M123.027,121.307v-16.498c0-0.323-0.217-0.606-0.528-0.69l-16.084-4.367
				c-0.379-0.106-0.774,0.122-0.878,0.503c-0.104,0.381,0.122,0.774,0.503,0.878l15.556,4.224v15.93
				c-0.737,0.277-1.265,0.983-1.265,1.817c0,1.075,0.871,1.946,1.946,1.946c1.075,0,1.946-0.871,1.946-1.946
				C124.223,122.294,123.73,121.601,123.027,121.307z"/>
		</g>
		<g>
			<polygon style="fill:#E0E0E0;" points="210.589,64.294 203.883,103.468 239.247,103.468 			"/>
			<polygon style="fill:#F5F5F5;" points="264.656,103.468 216.447,103.468 210.589,64.294 258.797,64.294 			"/>
			<polygon style="fill:#EBEBEB;" points="259.87,71.473 211.662,71.473 210.589,64.294 258.797,64.294 			"/>
			<g>
				<polygon style="fill:#E0E0E0;" points="226.288,78.859 222.135,78.859 221.507,74.662 225.661,74.662 				"/>
				<polygon style="fill:#E0E0E0;" points="232.618,78.859 228.464,78.859 227.837,74.662 231.991,74.662 				"/>
				<polygon style="fill:#E0E0E0;" points="238.948,78.859 234.794,78.859 234.166,74.662 238.32,74.662 				"/>
				<polygon style="fill:#E0E0E0;" points="245.277,78.859 241.124,78.859 240.496,74.662 244.65,74.662 				"/>
				<polygon style="fill:#E0E0E0;" points="251.607,78.859 247.453,78.859 246.826,74.662 250.98,74.662 				"/>
				<polygon style="fill:#E0E0E0;" points="257.937,78.859 253.783,78.859 253.155,74.662 257.309,74.662 				"/>
			</g>
			<g>
				<polygon style="fill:#E0E0E0;" points="220.855,84.853 216.702,84.853 216.074,80.657 220.228,80.657 				"/>
				<polygon style="fill:#E0E0E0;" points="227.185,84.853 223.031,84.853 222.404,80.657 226.557,80.657 				"/>
				<polygon style="fill:#E0E0E0;" points="233.515,84.853 229.361,84.853 228.733,80.657 232.887,80.657 				"/>
				<polygon style="fill:#E0E0E0;" points="239.844,84.853 235.691,84.853 235.063,80.657 239.217,80.657 				"/>
				<polygon style="fill:#E0E0E0;" points="246.174,84.853 242.02,84.853 241.393,80.657 245.546,80.657 				"/>
				<polygon style="fill:#E0E0E0;" points="252.504,84.853 248.35,84.853 247.722,80.657 251.876,80.657 				"/>
				<polygon style="fill:#E0E0E0;" points="258.833,84.853 254.68,84.853 254.052,80.657 258.206,80.657 				"/>
			</g>
			<g>
				<polygon style="fill:#E0E0E0;" points="221.752,90.848 217.598,90.848 216.971,86.652 221.124,86.652 				"/>
				<polygon style="fill:#E0E0E0;" points="228.082,90.848 223.928,90.848 223.3,86.652 227.454,86.652 				"/>
				<polygon style="fill:#E0E0E0;" points="234.411,90.848 230.258,90.848 229.63,86.652 233.784,86.652 				"/>
				<polygon style="fill:#E0E0E0;" points="240.741,90.848 236.587,90.848 235.96,86.652 240.113,86.652 				"/>
				<polygon style="fill:#E0E0E0;" points="247.071,90.848 242.917,90.848 242.289,86.652 246.443,86.652 				"/>
				<polygon style="fill:#E0E0E0;" points="253.4,90.848 249.247,90.848 248.619,86.652 252.773,86.652 				"/>
				<polygon style="fill:#E0E0E0;" points="259.73,90.848 255.576,90.848 254.949,86.652 259.102,86.652 				"/>
			</g>
			<g>
				<polygon style="fill:#E0E0E0;" points="222.648,96.843 218.495,96.843 217.867,92.646 222.021,92.646 				"/>
				<polygon style="fill:#E0E0E0;" points="228.978,96.843 224.824,96.843 224.197,92.646 228.351,92.646 				"/>
				<polygon style="fill:#E0E0E0;" points="235.308,96.843 231.154,96.843 230.526,92.646 234.68,92.646 				"/>
				<polygon style="fill:#E0E0E0;" points="241.637,96.843 237.484,96.843 236.856,92.646 241.01,92.646 				"/>
				<polygon style="fill:#E0E0E0;" points="247.967,96.843 243.813,96.843 243.186,92.646 247.34,92.646 				"/>
				<polygon style="fill:#E0E0E0;" points="254.297,96.843 250.143,96.843 249.515,92.646 253.669,92.646 				"/>
			</g>
		</g>
		<g>
			<path style="fill:#E0E0E0;" d="M448.444,284.232h-36.48c-1.208,0-2.187-0.979-2.187-2.187V229.93
				c0-1.208,0.979-2.187,2.187-2.187h36.48c1.208,0,2.187,0.979,2.187,2.187v52.116C450.63,283.253,449.651,284.232,448.444,284.232
				z"/>
			<path style="fill:#F5F5F5;" d="M442.654,278.67h-36.48c-1.208,0-2.187-0.979-2.187-2.187v-52.116
				c0-1.208,0.979-2.187,2.187-2.187h36.48c1.208,0,2.187,0.979,2.187,2.187v52.116C444.841,277.691,443.862,278.67,442.654,278.67z
				"/>
			<g>
				<path style="fill:#EBEBEB;" d="M437.72,231.074h-26.611c-0.736,0-1.332-0.596-1.332-1.332l0,0c0-0.736,0.596-1.332,1.332-1.332
					h26.611c0.736,0,1.332,0.596,1.332,1.332l0,0C439.052,230.478,438.455,231.074,437.72,231.074z"/>
				<path style="fill:#EBEBEB;" d="M437.72,237.968h-26.611c-0.736,0-1.332-0.596-1.332-1.332l0,0c0-0.736,0.596-1.332,1.332-1.332
					h26.611c0.736,0,1.332,0.596,1.332,1.332l0,0C439.052,237.372,438.455,237.968,437.72,237.968z"/>
				<path style="fill:#EBEBEB;" d="M437.72,244.863h-26.611c-0.736,0-1.332-0.596-1.332-1.332l0,0c0-0.736,0.596-1.332,1.332-1.332
					h26.611c0.736,0,1.332,0.596,1.332,1.332l0,0C439.052,244.267,438.455,244.863,437.72,244.863z"/>
				<path style="fill:#EBEBEB;" d="M437.72,251.757h-26.611c-0.736,0-1.332-0.596-1.332-1.332l0,0c0-0.736,0.596-1.332,1.332-1.332
					h26.611c0.736,0,1.332,0.596,1.332,1.332l0,0C439.052,251.161,438.455,251.757,437.72,251.757z"/>
				<path style="fill:#EBEBEB;" d="M437.72,258.652h-26.611c-0.736,0-1.332-0.596-1.332-1.332l0,0c0-0.736,0.596-1.332,1.332-1.332
					h26.611c0.736,0,1.332,0.596,1.332,1.332l0,0C439.052,258.055,438.455,258.652,437.72,258.652z"/>
				<path style="fill:#EBEBEB;" d="M437.72,265.546h-26.611c-0.736,0-1.332-0.596-1.332-1.332l0,0c0-0.736,0.596-1.332,1.332-1.332
					h26.611c0.736,0,1.332,0.596,1.332,1.332l0,0C439.052,264.95,438.455,265.546,437.72,265.546z"/>
				<path style="fill:#EBEBEB;" d="M431.72,272.441h-20.611c-0.736,0-1.332-0.596-1.332-1.332l0,0c0-0.736,0.596-1.332,1.332-1.332
					h20.611c0.736,0,1.332,0.596,1.332,1.332l0,0C433.052,271.844,432.455,272.441,431.72,272.441z"/>
			</g>
		</g>
		<g>
			<g>
				
					<line style="fill:none;stroke:#EBEBEB;stroke-width:2;stroke-linecap:round;stroke-linejoin:round;" x1="388.448" y1="149.075" x2="388.448" y2="151.575"/>
				
					<line style="fill:none;stroke:#EBEBEB;stroke-width:2;stroke-linecap:round;stroke-linejoin:round;stroke-dasharray:4.8716,4.8716;" x1="388.448" y1="156.447" x2="388.448" y2="192.984"/>
				<polyline style="fill:none;stroke:#EBEBEB;stroke-width:2;stroke-linecap:round;stroke-linejoin:round;" points="
					388.448,195.42 388.448,197.92 385.948,197.92 				"/>
				
					<line style="fill:none;stroke:#EBEBEB;stroke-width:2;stroke-linecap:round;stroke-linejoin:round;stroke-dasharray:4.9781,4.9781;" x1="380.97" y1="197.92" x2="293.852" y2="197.92"/>
				<polyline style="fill:none;stroke:#EBEBEB;stroke-width:2;stroke-linecap:round;stroke-linejoin:round;" points="
					291.363,197.92 288.863,197.92 288.863,200.42 				"/>
				
					<line style="fill:none;stroke:#EBEBEB;stroke-width:2;stroke-linecap:round;stroke-linejoin:round;stroke-dasharray:5.3134,5.3134;" x1="288.863" y1="205.733" x2="288.863" y2="213.703"/>
				<polyline style="fill:none;stroke:#EBEBEB;stroke-width:2;stroke-linecap:round;stroke-linejoin:round;" points="
					288.863,216.36 288.863,218.86 286.363,218.86 				"/>
				
					<line style="fill:none;stroke:#EBEBEB;stroke-width:2;stroke-linecap:round;stroke-linejoin:round;stroke-dasharray:5.5373,5.5373;" x1="280.826" y1="218.86" x2="272.52" y2="218.86"/>
				
					<line style="fill:none;stroke:#EBEBEB;stroke-width:2;stroke-linecap:round;stroke-linejoin:round;" x1="269.751" y1="218.86" x2="267.251" y2="218.86"/>
			</g>
		</g>
		
			<polyline style="fill:none;stroke:#EBEBEB;stroke-width:2;stroke-linecap:round;stroke-linejoin:round;stroke-miterlimit:10;stroke-dasharray:5;" points="
			428.121,289.48 428.121,308.086 288.863,308.086 288.863,249.093 269.088,249.093 		"/>
		
			<polyline style="fill:none;stroke:#EBEBEB;stroke-width:2;stroke-linecap:round;stroke-linejoin:round;stroke-miterlimit:10;stroke-dasharray:5;" points="
			269.088,84.853 295.972,84.853 295.972,189.151 246.826,189.151 		"/>
		
			<polyline style="fill:none;stroke:#EBEBEB;stroke-width:2;stroke-linecap:round;stroke-linejoin:round;stroke-miterlimit:10;stroke-dasharray:5;" points="
			132.38,116.493 157.132,116.493 157.132,220.084 194.465,220.084 		"/>
		<g>
			<polygon style="fill:#E0E0E0;" points="77.254,314.658 66.155,307.658 54.787,314.658 54.787,277.281 77.254,277.281 			"/>
			
				<ellipse transform="matrix(0.7071 -0.7071 0.7071 0.7071 -174.3253 126.9009)" style="fill:#F5F5F5;" cx="66.02" cy="273.88" rx="17.488" ry="17.488"/>
			
				<ellipse transform="matrix(0.7071 -0.7071 0.7071 0.7071 -174.3253 126.9009)" style="fill:#EBEBEB;" cx="66.02" cy="273.88" rx="14.845" ry="14.845"/>
		</g>
		
			<polyline style="fill:none;stroke:#EBEBEB;stroke-width:2;stroke-linecap:round;stroke-linejoin:round;stroke-miterlimit:10;stroke-dasharray:5;" points="
			89.483,274.371 166.628,274.371 166.628,249.093 194.465,249.093 		"/>
	</g>
</g>
<g id="Background_Simple" style="display:none;">
	<g style="display:inline;">
		<path style="fill:#407BFF;" d="M189.118,98.343c5.367-5.032,11.249-9.543,17.433-13.484c32.809-20.91,75-26.415,112.076-14.624
			c37.076,11.791,68.337,40.655,83.041,76.674s12.575,78.515-5.656,112.884c-41.292,77.841-141.228,104.669-223.103,105.369
			c-21.16,0.181-47.85,1.436-65.72-11.688c-12.018-8.826-18.56-24.002-18.551-38.913c0.008-14.475,5.586-29.393,15.34-40.595
			c10.763-12.361,27.688-17.472,37.441-30.789c22.491-30.71,10.513-74.765,23.979-110.369
			C170.384,119.622,178.799,108.019,189.118,98.343z"/>
		<path style="opacity:0.9;fill:#FFFFFF;enable-background:new    ;" d="M189.118,98.343c5.367-5.032,11.249-9.543,17.433-13.484
			c32.809-20.91,75-26.415,112.076-14.624c37.076,11.791,68.337,40.655,83.041,76.674s12.575,78.515-5.656,112.884
			c-41.292,77.841-141.228,104.669-223.103,105.369c-21.16,0.181-47.85,1.436-65.72-11.688
			c-12.018-8.826-18.56-24.002-18.551-38.913c0.008-14.475,5.586-29.393,15.34-40.595c10.763-12.361,27.688-17.472,37.441-30.789
			c22.491-30.71,10.513-74.765,23.979-110.369C170.384,119.622,178.799,108.019,189.118,98.343z"/>
	</g>
</g>
<g id="Shadow_1_">
	<ellipse id="_x3C_Path_x3E__359_" style="fill:#F5F5F5;" cx="250" cy="416.238" rx="193.889" ry="11.323"/>
</g>
<g id="Character">
	<g>
		<g>
			<path style="fill:#263238;" d="M112.781,141.549c0,0-5,1.846-6.583,8.703c-1.582,6.857,2.627,21.626,3.291,28.615
				c0.665,6.989-6.984,21.166,12.928,22.451c19.912,1.285,22.812-53.089,13.582-56.891
				C126.769,140.626,112.781,141.549,112.781,141.549z"/>
			<path style="fill:none;stroke:#263238;stroke-width:0.5;stroke-linecap:round;stroke-linejoin:round;stroke-miterlimit:10;" d="
				M135.064,145.22c5.551-2.616,7.939,15.478,5.961,28.538"/>
		</g>
		<path style="fill:#E4897B;" d="M182.33,137.912l2.374-6.522c0,0-0.989-1.193,3.56-3.368c4.549-2.176,7.337-3.363,9.207-2.769
			c1.87,0.593,4.441,4.793,4.244,6.254c-0.198,1.461-12.659,3.439-12.659,3.439l-1.78,5.037L182.33,137.912z"/>
		<g>
			<path style="fill:#407BFF;" d="M143.78,171.254c0,0,21.758-6.531,25.319-9.876c3.56-3.345,13.626-28.213,13.626-28.213
				l7.319,2.967c0,0-7.495,28.902-13.824,35.589s-30.659,18.554-30.659,18.554L143.78,171.254z"/>
			<path style="opacity:0.6;fill:#FFFFFF;enable-background:new    ;" d="M143.78,171.254c0,0,21.758-6.531,25.319-9.876
				c3.56-3.345,13.626-28.213,13.626-28.213l7.319,2.967c0,0-7.495,28.902-13.824,35.589s-30.659,18.554-30.659,18.554
				L143.78,171.254z"/>
		</g>
		<path style="fill:#E4897B;" d="M104.421,393.064l4.83,2.84c0,0,2.34-3.33,7.34-8.7v-0.01c1.4-1.48,2.87-3.12,4.4-4.88
			c3.06-3.51,6.37-7.52,9.84-11.83c1.02-1.27,2.06-2.57,3.11-3.89c12.09-15.21,25.16-33.09,30.05-45.18
			c1.52-3.76,2.26-6.95,1.93-9.34c-0.99-7.22-3.8-18.09-7.01-28.59c-4.88-16.05-10.37-31.26-10.37-31.26l-13.49,22.85
			c0,0,4.14,9.87,7.91,20.38c3.71,10.32,7.06,21.27,5.82,24.12c-0.12,0.28-0.27,0.61-0.44,0.96c-2.24,4.64-8.44,15.15-15.48,26.76
			c-0.71,1.17-1.43,2.35-2.15,3.53c-3.78,6.2-7.71,12.57-11.35,18.42c-1.42,2.3-2.8,4.52-4.11,6.62
			C109.051,385.834,104.421,393.064,104.421,393.064z"/>
		<path style="opacity:0.2;enable-background:new    ;" d="M134.216,366.594c-6.38,8.02-12.51,15.3-17.07,20.6
			c-0.65-3.26-1.31-7.12-1.83-11.33c5.27-8.46,11.72-18.9,17.58-28.57C132.845,352.414,133.035,359.984,134.216,366.594z"/>
		<path style="fill:#E4897B;" d="M110.141,300.474c1.67,11.39,4.05,21.71,5.6,27.86c0.93,3.69,1.56,5.87,1.56,5.87
			c-0.09,11.49,0.83,23.8,2.06,35.04c0.51,4.58,1.06,8.98,1.63,13.07c2.1,15.14,4.31,26.01,4.31,26.01l5.75-0.75l-0.22-37.09
			l-0.12-19.66l-0.16-26.75l-0.06-4.66l-0.28-20.34l-0.41-30l-20-9C107.121,271.474,108.121,286.754,110.141,300.474z"/>
		<path style="opacity:0.2;enable-background:new    ;" d="M163.66,300.66c-5.11,3.53-12.01,5.65-16.73,6.79
			c-1.09-3.73-2.5-7.92-3.97-12c-3.77-10.51-7.91-20.38-7.91-20.38l13.49-22.85c0,0,5.49,15.21,10.37,31.26
			C160.7,289.32,162.36,295.28,163.66,300.66z"/>
		<path style="opacity:0.2;enable-background:new    ;" d="M130.38,311.66c-7.49-0.2-13.62-0.7-18.59-1.34
			c-0.58-3.13-1.15-6.44-1.65-9.85c-2.02-13.72-3.02-29-0.34-40.4l20,9l0.41,30L130.38,311.66z"/>
		<path style="fill:#263238;" d="M164.628,298.672c-12.51,7.35-49.307,10.468-49.307,10.468l-6.02-16.92l0.656,16.736h-1.783
			c0,0-13.448-45.495,4.417-75.316l32-2.47l3.5,16.48C148.09,247.65,157.107,271.272,164.628,298.672z"/>
		<path style="fill:#2E353A;" d="M141.164,415.693c-0.944-0.565-1.984-0.953-3.068-1.145l0,0c0,0-3.534-2.633-6.338-11.674
			l-4.206-0.482c-1.459-0.142-2.851,0.643-3.485,1.964c-0.089,0.18-0.151,0.372-0.183,0.57c-0.068,1.021-0.07,2.046-0.006,3.068
			c0.036,3.189,1.384,10.168,1.384,10.168l0.733-0.104l-0.614-6.42c-0.199-2.181,1.819,0.124,2.624,2.389
			c0.806,2.264,2.165,4.603,6.929,4.046C140.488,417.395,142.756,416.852,141.164,415.693z"/>
		<path style="fill:#E4897B;" d="M130.596,399.667c0,0,1.5,4.094,3.5,8.594s4,6.287,4,6.287s-3.474,1.128-5.349-1.05
			c-1.875-2.178-5.082-10.045-8.679-9.141c0,0,0.263-0.939,0.802-1.83C125.409,401.636,130.596,399.667,130.596,399.667z"/>
		<path style="fill:#2E353A;" d="M105.929,412.137c-0.202-1.082-0.601-2.117-1.176-3.056l0,0c0,0-0.37-4.391,4.542-12.482
			l-2.426-3.469c-0.861-1.186-2.371-1.709-3.78-1.308c-0.194,0.052-0.378,0.133-0.548,0.241c-0.81,0.626-1.579,1.303-2.302,2.028
			c-2.364,2.141-6.698,7.775-6.698,7.775l0.564,0.48l4.401-4.715c1.501-1.594,1.112,1.444-0.049,3.548
			c-1.162,2.104-2.012,4.672,1.562,7.87C104.207,412.759,106.117,414.097,105.929,412.137z"/>
		<path style="fill:#E4897B;" d="M110.928,393.603c0,0-2.072,3.837-4.116,8.317c-2.045,4.48-2.058,7.162-2.058,7.162
			s-3.147-1.854-2.758-4.702s4.154-10.463,1.094-12.557c0,0,0.878-0.425,1.902-0.612
			C106.015,391.023,110.928,393.603,110.928,393.603z"/>
		<g>
			<g>
				<polygon style="fill:#263238;" points="112.303,230.368 112.121,235.196 145.193,233.911 145.408,228.201 				"/>
				<polygon style="opacity:0.2;fill:#FFFFFF;enable-background:new    ;" points="112.303,230.368 112.121,235.196 
					145.193,233.911 145.408,228.201 				"/>
			</g>
			
				<rect x="121.867" y="228.766" transform="matrix(0.9999 -0.0134 0.0134 0.9999 -3.1016 1.6602)" style="fill:#263238;" width="1.639" height="8.348"/>
			
				<rect x="130.625" y="228.952" transform="matrix(0.9987 -0.0516 0.0516 0.9987 -11.7792 7.2374)" style="fill:#FFFFFF;" width="7.245" height="5.494"/>
			
				<rect x="142.097" y="227.313" transform="matrix(0.9999 -0.0132 0.0132 0.9999 -3.053 1.9129)" style="fill:#263238;" width="1.639" height="8.348"/>
		</g>
		<path style="fill:#E4897B;" d="M103.318,232.407l7.559,4.324c0,0,2.297,0.621,4.149,3.588c1.853,2.967-0.806,14.439-2.246,14.439
			c-1.44,0-9.573-1.78-9.463-3.363c0.111-1.582,3.263-9.099,3.263-9.099l-7.307-4.549L103.318,232.407z"/>
		<g>
			<path style="fill:#407BFF;" d="M112.121,230.363c0,0-1.991-29.322-8.803-46.079c0,0,13.957-7.523,40.462-13.03
				c0,0,7.581,18.444,1.628,57.263L112.121,230.363z"/>
			<circle style="opacity:0.6;fill:#FFFFFF;enable-background:new    ;" cx="134.113" cy="201.319" r="0.943"/>
			<path style="opacity:0.6;fill:#FFFFFF;enable-background:new    ;" d="M135.999,212.697c0,0.521-0.422,0.943-0.943,0.943
				c-0.521,0-0.943-0.422-0.943-0.943c0-0.521,0.422-0.943,0.943-0.943C135.577,211.754,135.999,212.176,135.999,212.697z"/>
			<path style="opacity:0.6;fill:#FFFFFF;enable-background:new    ;" d="M135.999,223.505c0,0.521-0.422,0.943-0.943,0.943
				c-0.521,0-0.943-0.422-0.943-0.943c0-0.521,0.422-0.943,0.943-0.943C135.577,222.562,135.999,222.985,135.999,223.505z"/>
		</g>
		<g>
			<path style="fill:#407BFF;" d="M103.318,184.284c-6.219,3.419-28.768,29.332-26.988,37.046c1.78,7.714,26.988,19.78,26.988,19.78
				l4.336-7.47c0,0-16.52-12.31-17.312-14.288c-0.791-1.978,18.182-16.905,18.182-16.905s0.438-7.004-0.351-11.863
				C107.385,185.725,103.318,184.284,103.318,184.284z"/>
			<path style="opacity:0.6;fill:#FFFFFF;enable-background:new    ;" d="M103.318,184.284
				c-6.219,3.419-28.768,29.332-26.988,37.046c1.78,7.714,26.988,19.78,26.988,19.78l4.336-7.47c0,0-16.52-12.31-17.312-14.288
				c-0.791-1.978,18.182-16.905,18.182-16.905s0.438-7.004-0.351-11.863C107.385,185.725,103.318,184.284,103.318,184.284z"/>
		</g>
		<g>
			<path style="fill:#407BFF;" d="M115.026,189.484c0,0-6.323-10.347,7.523-13.91c13.846-3.563,18.066,4.745,18.066,4.745
				l-6.899-1.187l-0.866,16.484c0,0-4.085-8.506-14.574-12.132L115.026,189.484z"/>
			<path style="opacity:0.6;fill:#FFFFFF;enable-background:new    ;" d="M115.026,189.484c0,0-6.323-10.347,7.523-13.91
				c13.846-3.563,18.066,4.745,18.066,4.745l-6.899-1.187l-0.866,16.484c0,0-4.085-8.506-14.574-12.132L115.026,189.484z"/>
		</g>
		<path style="fill:#E4897B;" d="M130.733,187.505c-6.808-3.035-13.308-7.642-13.308-7.642c3.25-3.06,2.66-7.58,1.83-10.4
			c-0.45-1.56-0.98-2.6-0.98-2.6l9.57,1.79c-0.25,1.58-0.36,2.91-0.37,4.03c-0.02,1.23,0.09,2.2,0.27,2.96
			c0.65,2.86,2.28,2.9,2.28,2.9C131.705,181.684,130.733,187.505,130.733,187.505z"/>
		<path style="opacity:0.2;enable-background:new    ;" d="M127.475,172.684c-0.02,1.23,0.09,2.2,0.27,2.96
			c-3.8-0.5-6.68-3.54-8.49-6.18c-0.45-1.56-0.98-2.6-0.98-2.6l9.57,1.79C127.595,170.234,127.485,171.564,127.475,172.684z"/>
		<g>
			<path style="fill:#E4897B;" d="M125.582,141.714c10.305,0,11.171,4.98,11.762,13.564c0.738,10.726-1.657,18.34-12.064,16.027
				C111.147,168.162,111.753,141.714,125.582,141.714z"/>
			<path style="fill:#DE5753;" d="M131.962,154.8c0,0,1.149,2.178,2.415,3.459c0,0-0.715,1.131-2.197,0.937L131.962,154.8z"/>
			<g>
				<path style="fill:#263238;" d="M126.867,154.108c0.015,0.684-0.343,1.247-0.8,1.256c-0.456,0.01-0.838-0.537-0.852-1.221
					c-0.014-0.684,0.343-1.247,0.8-1.256C126.471,152.877,126.852,153.424,126.867,154.108z"/>
				<path style="fill:#263238;" d="M125.825,152.924l1.476-0.615C127.301,152.309,126.586,153.577,125.825,152.924z"/>
			</g>
			<g>
				<path style="fill:#263238;" d="M135.368,153.786c0.014,0.684-0.343,1.246-0.8,1.256c-0.456,0.01-0.838-0.537-0.852-1.221
					c-0.015-0.684,0.344-1.247,0.799-1.256C134.972,152.555,135.354,153.102,135.368,153.786z"/>
				<path style="fill:#263238;" d="M134.327,152.602l1.475-0.615C135.802,151.987,135.088,153.254,134.327,152.602z"/>
			</g>
			
				<path style="fill:none;stroke:#263238;stroke-width:0.708;stroke-linecap:round;stroke-linejoin:round;stroke-miterlimit:10;" d="
				M126.796,148.357c0,0-2.339-0.31-3.615,1.251"/>
			
				<path style="fill:none;stroke:#263238;stroke-width:0.708;stroke-linecap:round;stroke-linejoin:round;stroke-miterlimit:10;" d="
				M132.85,148.019c0,0,1.472-0.541,3.317,0.692"/>
			<path style="fill:#263238;" d="M116.623,156.227c0,0,3.909-6.833,3.331-12.117c0,0,5.871-6.055,13.782-0.071
				c0,0,3.307,5.693,3.512,10.118c0,0,1.646-14.87-12.669-15.233c-14.292-0.363-14.301,20.58-6.922,26.837
				C117.658,165.761,114.205,160.501,116.623,156.227z"/>
			<path style="fill:#E4897B;" d="M117.979,157.988c-0.053-1.341-1.431-3.613-3.925-3.347c-2.581,0.276-3.823,5.571,2.593,6.859
				C117.568,161.685,118.089,160.786,117.979,157.988z"/>
			
				<path style="fill:none;stroke:#263238;stroke-width:0.708;stroke-linecap:round;stroke-linejoin:round;stroke-miterlimit:10;" d="
				M131.054,163.707c0,0-3.49,0.789-4.934-2.33"/>
			<path style="fill:#263238;" d="M119.954,144.11c0,0,9.515-4.225,15.814,1.354c0,0,2.474-7.344-5.965-9.849
				c-8.44-2.506-17.022,5.934-17.022,5.934L119.954,144.11z"/>
			<path style="fill:#263238;" d="M119.954,144.11c0,0-5.556,5.481-4.752,16.395c0.804,10.913-0.253,17.815-2.422,24.645
				c-2.169,6.83,3.508,8.869,3.508,8.869s-6.469,1.596-7.802-5.327c-0.874-4.542,1.206-14.383,0.159-26.105
				C107.598,150.864,111.779,142.58,119.954,144.11z"/>
		</g>
	</g>
</g>
<g id="Profile">
	<g>
		<g>
			<g>
				<path style="fill:#407BFF;" d="M274.449,119.778c-5.08,0-9.198,4.118-9.198,9.198c0,5.08,4.118,9.198,9.198,9.198
					c5.08,0,9.198-4.118,9.198-9.198C283.647,123.896,279.529,119.778,274.449,119.778z M274.449,128.086
					c-1.475,0-2.67-1.196-2.67-2.67s1.196-2.67,2.67-2.67c1.475,0,2.67,1.195,2.67,2.67S275.924,128.086,274.449,128.086z"/>
				<path style="opacity:0.6;fill:#FFFFFF;enable-background:new    ;" d="M274.449,119.778c-5.08,0-9.198,4.118-9.198,9.198
					c0,5.08,4.118,9.198,9.198,9.198c5.08,0,9.198-4.118,9.198-9.198C283.647,123.896,279.529,119.778,274.449,119.778z
					 M274.449,128.086c-1.475,0-2.67-1.196-2.67-2.67s1.196-2.67,2.67-2.67c1.475,0,2.67,1.195,2.67,2.67
					S275.924,128.086,274.449,128.086z"/>
			</g>
			<path style="fill:#407BFF;" d="M365.49,418.162H183.408c-4.134,0-7.486-3.351-7.486-7.485V139.345
				c0-4.134,3.351-7.485,7.486-7.485H365.49c4.134,0,7.485,3.351,7.485,7.485v271.332
				C372.976,414.811,369.625,418.162,365.49,418.162z"/>
			<rect x="186.355" y="148.505" style="opacity:0.8;fill:#FFFFFF;enable-background:new    ;" width="176.189" height="256.035"/>
			<g>
				<path style="fill:#407BFF;" d="M321.309,145.295h-93.72c-1.067,0-1.931-0.865-1.931-1.931v-12.016
					c0-1.067,0.865-1.931,1.931-1.931h93.72c1.067,0,1.931,0.865,1.931,1.931v12.016C323.24,144.43,322.375,145.295,321.309,145.295
					z"/>
				<path style="opacity:0.4;fill:#FFFFFF;enable-background:new    ;" d="M321.309,145.295h-93.72
					c-1.067,0-1.931-0.865-1.931-1.931v-12.016c0-1.067,0.865-1.931,1.931-1.931h93.72c1.067,0,1.931,0.865,1.931,1.931v12.016
					C323.24,144.43,322.375,145.295,321.309,145.295z"/>
			</g>
			<g>
				<g>
					<path style="fill:#263238;" d="M310.524,160.048h-28.246c-1.205,0-2.286-0.628-2.822-1.64c-0.984-1.857-2.901-3.01-5.003-3.01
						c-2.103,0-4.02,1.153-5.002,3.008c-0.536,1.013-1.618,1.642-2.823,1.642h-28.255c-1.665,0-3.02-1.355-3.02-3.02v-16.83
						c0-1.665,1.355-3.02,3.02-3.02h72.15c1.665,0,3.02,1.355,3.02,3.02v16.83C313.544,158.693,312.189,160.048,310.524,160.048z
						 M274.454,153.398c2.843,0,5.438,1.561,6.77,4.073c0.186,0.351,0.6,0.577,1.055,0.577h28.246c0.562,0,1.02-0.458,1.02-1.02
						v-16.83c0-0.563-0.457-1.02-1.02-1.02h-72.15c-0.562,0-1.02,0.458-1.02,1.02v16.83c0,0.563,0.458,1.02,1.02,1.02h28.255
						c0.456,0,0.87-0.227,1.055-0.577C269.014,154.958,271.608,153.398,274.454,153.398z"/>
				</g>
				<g style="opacity:0.2;enable-background:new    ;">
					<g>
						<path style="fill:#FFFFFF;" d="M310.524,160.048h-28.246c-1.205,0-2.286-0.628-2.822-1.64c-0.984-1.857-2.901-3.01-5.003-3.01
							c-2.103,0-4.02,1.153-5.002,3.008c-0.536,1.013-1.618,1.642-2.823,1.642h-28.255c-1.665,0-3.02-1.355-3.02-3.02v-16.83
							c0-1.665,1.355-3.02,3.02-3.02h72.15c1.665,0,3.02,1.355,3.02,3.02v16.83C313.544,158.693,312.189,160.048,310.524,160.048z
							 M274.454,153.398c2.843,0,5.438,1.561,6.77,4.073c0.186,0.351,0.6,0.577,1.055,0.577h28.246c0.562,0,1.02-0.458,1.02-1.02
							v-16.83c0-0.563-0.457-1.02-1.02-1.02h-72.15c-0.562,0-1.02,0.458-1.02,1.02v16.83c0,0.563,0.458,1.02,1.02,1.02h28.255
							c0.456,0,0.87-0.227,1.055-0.577C269.014,154.958,271.608,153.398,274.454,153.398z"/>
					</g>
				</g>
			</g>
			<g>
				<path style="fill:#407BFF;" d="M306.243,141.09h-63.549c-0.64,0-1.159-0.519-1.159-1.159v-4.499c0-0.64,0.519-1.159,1.159-1.159
					h63.549c0.64,0,1.159,0.519,1.159,1.159v4.499C307.403,140.571,306.884,141.09,306.243,141.09z"/>
				<path style="opacity:0.6;fill:#FFFFFF;enable-background:new    ;" d="M306.204,141.09h-63.549c-0.64,0-1.159-0.519-1.159-1.159
					v-4.499c0-0.64,0.519-1.159,1.159-1.159h63.549c0.64,0,1.159,0.519,1.159,1.159v4.499
					C307.363,140.571,306.844,141.09,306.204,141.09z"/>
			</g>
		</g>
		<g>
			<g>
				<rect x="273.011" y="288.335" style="opacity:0.3;enable-background:new    ;" width="17.796" height="17.796"/>
				<path style="opacity:0.3;enable-background:new    ;" d="M288.733,313.298h-13.647c-1.146,0-2.074-0.929-2.074-2.074l0,0
					c0-1.146,0.929-2.074,2.074-2.074h13.647c1.146,0,2.074,0.929,2.074,2.074l0,0C290.807,312.37,289.879,313.298,288.733,313.298z
					"/>
				<path style="opacity:0.3;enable-background:new    ;" d="M346.008,292.143h-45.775c-1.051,0-1.904-0.852-1.904-1.904v0
					c0-1.051,0.852-1.904,1.904-1.904h45.775c1.052,0,1.904,0.852,1.904,1.904v0C347.912,291.29,347.06,292.143,346.008,292.143z"/>
				<path style="opacity:0.3;enable-background:new    ;" d="M336.008,302.143h-35.775c-1.051,0-1.904-0.852-1.904-1.904v0
					c0-1.051,0.852-1.904,1.904-1.904h35.775c1.052,0,1.904,0.852,1.904,1.904v0C337.912,301.29,337.06,302.143,336.008,302.143z"/>
				<path style="opacity:0.3;enable-background:new    ;" d="M346.008,312.143h-45.775c-1.051,0-1.904-0.852-1.904-1.904v0
					c0-1.051,0.852-1.904,1.904-1.904h45.775c1.052,0,1.904,0.852,1.904,1.904v0C347.912,311.29,347.06,312.143,346.008,312.143z"/>
				<path style="opacity:0.3;enable-background:new    ;" d="M320.008,322.143h-19.775c-1.051,0-1.904-0.852-1.904-1.904v0
					c0-1.051,0.852-1.904,1.904-1.904h19.775c1.052,0,1.904,0.852,1.904,1.904v0C321.912,321.29,321.06,322.143,320.008,322.143z"/>
			</g>
			<path style="opacity:0.3;enable-background:new    ;" d="M327.058,174.866H221.341c-1.904,0-3.447-1.543-3.447-3.447l0,0
				c0-1.904,1.543-3.447,3.447-3.447h105.717c1.904,0,3.447,1.543,3.447,3.447l0,0C330.505,173.323,328.962,174.866,327.058,174.866
				z"/>
			<path style="opacity:0.3;enable-background:new    ;" d="M344.69,195.286h-69.775c-1.051,0-1.904-0.852-1.904-1.904l0,0
				c0-1.051,0.852-1.904,1.904-1.904h69.775c1.051,0,1.904,0.852,1.904,1.904l0,0C346.593,194.434,345.741,195.286,344.69,195.286z"
				/>
			<path style="opacity:0.3;enable-background:new    ;" d="M334.69,205.286h-59.775c-1.051,0-1.904-0.852-1.904-1.904l0,0
				c0-1.051,0.852-1.904,1.904-1.904h59.775c1.051,0,1.904,0.852,1.904,1.904l0,0C336.593,204.434,335.741,205.286,334.69,205.286z"
				/>
			<path style="opacity:0.3;enable-background:new    ;" d="M344.69,215.286h-69.775c-1.051,0-1.904-0.852-1.904-1.904l0,0
				c0-1.051,0.852-1.904,1.904-1.904h69.775c1.051,0,1.904,0.852,1.904,1.904l0,0C346.593,214.434,345.741,215.286,344.69,215.286z"
				/>
			<path style="opacity:0.3;enable-background:new    ;" d="M324.69,225.286h-49.775c-1.051,0-1.904-0.852-1.904-1.904l0,0
				c0-1.051,0.852-1.904,1.904-1.904h49.775c1.051,0,1.904,0.852,1.904,1.904l0,0C326.593,224.434,325.741,225.286,324.69,225.286z"
				/>
			<g>
				<polygon style="opacity:0.3;enable-background:new    ;" points="278.004,237.206 279.102,239.432 281.558,239.789 
					279.781,241.521 280.2,243.967 278.004,242.812 275.807,243.967 276.226,241.521 274.449,239.789 276.905,239.432 				"/>
				<polygon style="opacity:0.3;enable-background:new    ;" points="290.418,237.206 291.516,239.432 293.972,239.789 
					292.195,241.521 292.614,243.967 290.418,242.812 288.221,243.967 288.64,241.521 286.863,239.789 289.319,239.432 				"/>
				<polygon style="opacity:0.3;enable-background:new    ;" points="302.832,237.206 303.93,239.432 306.386,239.789 
					304.609,241.521 305.029,243.967 302.832,242.812 300.635,243.967 301.054,241.521 299.277,239.789 301.733,239.432 				"/>
				<polygon style="opacity:0.3;enable-background:new    ;" points="315.246,237.206 316.344,239.432 318.8,239.789 
					317.023,241.521 317.443,243.967 315.246,242.812 313.049,243.967 313.469,241.521 311.691,239.789 314.147,239.432 				"/>
				<polygon style="opacity:0.3;enable-background:new    ;" points="327.66,237.206 328.758,239.432 331.214,239.789 
					329.437,241.521 329.857,243.967 327.66,242.812 325.463,243.967 325.883,241.521 324.105,239.789 326.561,239.432 				"/>
			</g>
			<g>
				<polygon style="opacity:0.3;enable-background:new    ;" points="278.004,249.947 279.102,252.173 281.558,252.53 
					279.781,254.262 280.2,256.708 278.004,255.553 275.807,256.708 276.226,254.262 274.449,252.53 276.905,252.173 				"/>
				<polygon style="opacity:0.3;enable-background:new    ;" points="290.418,249.947 291.516,252.173 293.972,252.53 
					292.195,254.262 292.614,256.708 290.418,255.553 288.221,256.708 288.64,254.262 286.863,252.53 289.319,252.173 				"/>
				<polygon style="opacity:0.3;enable-background:new    ;" points="302.832,249.947 303.93,252.173 306.386,252.53 
					304.609,254.262 305.029,256.708 302.832,255.553 300.635,256.708 301.054,254.262 299.277,252.53 301.733,252.173 				"/>
				<polygon style="opacity:0.1;enable-background:new    ;" points="315.246,249.947 316.344,252.173 318.8,252.53 
					317.023,254.262 317.443,256.708 315.246,255.553 313.049,256.708 313.469,254.262 311.691,252.53 314.147,252.173 				"/>
				<polygon style="opacity:0.1;enable-background:new    ;" points="327.66,249.947 328.758,252.173 331.214,252.53 
					329.437,254.262 329.857,256.708 327.66,255.553 325.463,256.708 325.883,254.262 324.105,252.53 326.561,252.173 				"/>
			</g>
			<g>
				<polygon style="opacity:0.3;enable-background:new    ;" points="278.004,262.688 279.102,264.914 281.558,265.271 
					279.781,267.003 280.2,269.449 278.004,268.294 275.807,269.449 276.226,267.003 274.449,265.271 276.905,264.914 				"/>
				<polygon style="opacity:0.3;enable-background:new    ;" points="290.418,262.688 291.516,264.914 293.972,265.271 
					292.195,267.003 292.614,269.449 290.418,268.294 288.221,269.449 288.64,267.003 286.863,265.271 289.319,264.914 				"/>
				<polygon style="opacity:0.3;enable-background:new    ;" points="302.832,262.688 303.93,264.914 306.386,265.271 
					304.609,267.003 305.029,269.449 302.832,268.294 300.635,269.449 301.054,267.003 299.277,265.271 301.733,264.914 				"/>
				<polygon style="opacity:0.3;enable-background:new    ;" points="315.246,262.688 316.344,264.914 318.8,265.271 
					317.023,267.003 317.443,269.449 315.246,268.294 313.049,269.449 313.469,267.003 311.691,265.271 314.147,264.914 				"/>
				<polygon style="opacity:0.1;enable-background:new    ;" points="327.66,262.688 328.758,264.914 331.214,265.271 
					329.437,267.003 329.857,269.449 327.66,268.294 325.463,269.449 325.883,267.003 324.105,265.271 326.561,264.914 				"/>
			</g>
			<g>
				<rect x="273.011" y="338.335" style="opacity:0.3;enable-background:new    ;" width="17.796" height="17.796"/>
				<path style="opacity:0.3;enable-background:new    ;" d="M288.733,363.298h-13.647c-1.146,0-2.074-0.929-2.074-2.074l0,0
					c0-1.146,0.929-2.074,2.074-2.074h13.647c1.146,0,2.074,0.929,2.074,2.074l0,0C290.807,362.37,289.879,363.298,288.733,363.298z
					"/>
				<path style="opacity:0.3;enable-background:new    ;" d="M346.008,342.143h-45.775c-1.051,0-1.904-0.852-1.904-1.904v0
					c0-1.051,0.852-1.904,1.904-1.904h45.775c1.052,0,1.904,0.852,1.904,1.904v0C347.912,341.29,347.06,342.143,346.008,342.143z"/>
				<path style="opacity:0.3;enable-background:new    ;" d="M336.008,352.143h-35.775c-1.051,0-1.904-0.852-1.904-1.904v0
					c0-1.051,0.852-1.904,1.904-1.904h35.775c1.052,0,1.904,0.852,1.904,1.904v0C337.912,351.29,337.06,352.143,336.008,352.143z"/>
				<path style="opacity:0.3;enable-background:new    ;" d="M346.008,362.143h-45.775c-1.051,0-1.904-0.852-1.904-1.904v0
					c0-1.051,0.852-1.904,1.904-1.904h45.775c1.052,0,1.904,0.852,1.904,1.904v0C347.912,361.29,347.06,362.143,346.008,362.143z"/>
				<path style="opacity:0.3;enable-background:new    ;" d="M320.008,372.143h-19.775c-1.051,0-1.904-0.852-1.904-1.904v0
					c0-1.051,0.852-1.904,1.904-1.904h19.775c1.052,0,1.904,0.852,1.904,1.904v0C321.912,371.29,321.06,372.143,320.008,372.143z"/>
			</g>
			<g>
				<rect x="197.471" y="191.479" style="fill:#FFFFFF;" width="64.178" height="85.218"/>
				<g>
					<rect x="200.47" y="194.478" style="fill:#407BFF;" width="58.18" height="79.22"/>
					<rect x="200.47" y="194.478" style="opacity:0.4;fill:#FFFFFF;enable-background:new    ;" width="58.18" height="79.22"/>
				</g>
				<g>
					<g>
						<path style="fill:#407BFF;" d="M258.65,256.018v17.68h-4.52c-1.35-1.25-2.75-2.35-4.11-3.13c-0.78-0.45-1.54-0.79-2.28-0.99
							c-6.79-1.84,2.96-20.04,2.96-20.04s0,0,0.01,0.01C252.97,250.288,255.81,252.848,258.65,256.018z"/>
						<path style="opacity:0.6;fill:#FFFFFF;enable-background:new    ;" d="M258.65,256.018v17.68h-4.52
							c-1.35-1.25-2.75-2.35-4.11-3.13c-0.78-0.45-1.54-0.79-2.28-0.99c-6.79-1.84,2.96-20.04,2.96-20.04s0,0,0.01,0.01
							C252.97,250.288,255.81,252.848,258.65,256.018z"/>
					</g>
					<path style="opacity:0.2;enable-background:new    ;" d="M258.65,273.638v0.06h-4.52c-1.35-1.25-2.75-2.35-4.11-3.13l1.34-8.37
						c0,0,1.62,1.23,3.45,3.72v0.01C256.18,267.788,257.65,270.348,258.65,273.638z"/>
					<g>
						<path style="fill:#263238;" d="M246.19,248.838c-0.14,0.72-0.28,1.45-0.44,2.17c-0.18,0.86-0.38,1.71-0.59,2.56
							c-2.18,8.77-5.78,16.45-10.94,20.13h-17.64c-5.13-2.61-6.11-7.03-5.94-11.6c0.11-3.11,0.75-6.28,0.98-8.98
							c0.08-1.02,0.11-1.97,0.03-2.82c-0.13-1.42-0.4-3.13-0.73-5.02c-1.53-8.71-4.52-21.28-3.03-27.73
							c1.81-7.84,7.53-9.96,7.53-9.96s1.94-0.13,4.92-0.11c2.2,0.01,4.97,0.11,7.93,0.39c0.07,0.01,0.14,0.01,0.21,0.02
							c3.17,0.31,6.56,0.84,9.73,1.72c0.24,0.07,0.49,0.14,0.73,0.21c0.63,0.19,1.26,0.39,1.87,0.61c-0.01,0.01,0,0.01,0,0.01
							c0.4,0.14,0.79,0.29,1.18,0.45l0.01,0.01c0.48,0.19,0.92,0.51,1.34,0.93C247.88,216.398,249.04,233.448,246.19,248.838z"/>
						
							<path style="fill:none;stroke:#263238;stroke-width:0.5;stroke-linecap:round;stroke-linejoin:round;stroke-miterlimit:10;" d="
							M240.921,211.792c6.352-2.993,9.085,17.712,6.821,32.657"/>
					</g>
					<g>
						<path style="fill:#407BFF;" d="M255.29,273.698h-45.64c-0.19-0.86-0.38-1.72-0.58-2.57c-1.24-5.24-2.72-10.29-4.47-14.62
							c-0.01-0.01-0.01-0.01-0.01-0.01s2.08-1.32,5.84-2.89c0.38-0.17,0.77-0.33,1.19-0.49c1.58-0.63,3.42-1.28,5.48-1.9
							c0.21-0.06,0.43-0.12,0.66-0.19c1.55-0.45,3.22-0.87,5.02-1.24h0.01c3.38-0.71,7.16-1.24,11.28-1.42c0,0-0.01,0,0-0.01
							c2.74-0.13,5.63-0.1,8.66,0.14c0.01,0,0.01,0,0.01,0c1.13,0.08,2.28,0.19,3.45,0.34c1.47,0.18,2.98,0.41,4.51,0.7
							c0,0,0,0,0.01,0.01c0.17,0.27,2.95,4.69,4.1,16.37v0.01C255.05,268.228,255.22,270.808,255.29,273.698z"/>
					</g>
					<g>
						<path style="fill:#407BFF;" d="M217.369,260.137c0,0-5.218-12.858,11.078-14.31c16.296-1.452,19.519,8.713,19.519,8.713
							l-7.57-2.621l-4.039,18.452c0,0-3.033-10.363-14.204-16.405L217.369,260.137z"/>
						<path style="opacity:0.6;fill:#FFFFFF;enable-background:new    ;" d="M217.369,260.137c0,0-5.218-12.858,11.078-14.31
							c16.296-1.452,19.519,8.713,19.519,8.713l-7.57-2.621l-4.039,18.452c0,0-3.033-10.363-14.204-16.405L217.369,260.137z"/>
					</g>
					<path style="fill:#E4897B;" d="M235.753,262.196c-6.104-6.594-14.168-11.174-14.168-11.174
						c3.899-3.301,3.497-8.501,2.719-11.774c-0.42-1.81-0.963-3.03-0.963-3.03l10.828,2.623c-0.381,1.79-0.587,3.304-0.666,4.583
						c-0.097,1.404-0.03,2.52,0.13,3.399c0.57,3.307,2.43,3.452,2.43,3.452C237.793,253.964,235.753,262.196,235.753,262.196z"/>
					<path style="opacity:0.2;enable-background:new    ;" d="M233.503,243.424c-0.097,1.404-0.03,2.52,0.13,3.399
						c-4.312-0.801-7.42-4.449-9.329-7.575c-0.42-1.81-0.963-3.03-0.963-3.03l10.828,2.623
						C233.788,240.632,233.582,242.145,233.503,243.424z"/>
					<g>
						<path style="fill:#E4897B;" d="M230.07,207.781c11.793,0,12.784,5.699,13.46,15.521c0.845,12.275-1.896,20.988-13.805,18.34
							C213.551,238.045,214.244,207.781,230.07,207.781z"/>
						<path style="fill:#DE5753;" d="M237.371,222.755c0,0,1.315,2.492,2.764,3.958c0,0-0.819,1.294-2.514,1.072L237.371,222.755z"
							/>
						<g>
							<path style="fill:#263238;" d="M231.54,221.963c0.016,0.783-0.393,1.426-0.915,1.437c-0.522,0.011-0.958-0.615-0.975-1.397
								c-0.017-0.783,0.393-1.426,0.915-1.438C231.087,220.555,231.523,221.18,231.54,221.963z"/>
							<path style="fill:#263238;" d="M230.348,220.608l1.689-0.704C232.036,219.904,231.219,221.355,230.348,220.608z"/>
						</g>
						<g>
							<path style="fill:#263238;" d="M241.268,221.594c0.016,0.783-0.393,1.426-0.915,1.437c-0.522,0.011-0.958-0.615-0.975-1.397
								c-0.017-0.783,0.393-1.427,0.915-1.438C240.815,220.186,241.252,220.812,241.268,221.594z"/>
							<path style="fill:#263238;" d="M240.076,220.239l1.689-0.704C241.765,219.536,240.947,220.986,240.076,220.239z"/>
						</g>
						
							<path style="fill:none;stroke:#263238;stroke-width:0.708;stroke-linecap:round;stroke-linejoin:round;stroke-miterlimit:10;" d="
							M231.458,215.382c0,0-2.677-0.354-4.136,1.431"/>
						
							<path style="fill:none;stroke:#263238;stroke-width:0.708;stroke-linecap:round;stroke-linejoin:round;stroke-miterlimit:10;" d="
							M238.386,214.995c0,0,1.685-0.619,3.796,0.792"/>
						<path style="fill:#263238;" d="M219.817,224.388c0,0,4.473-7.82,3.812-13.866c0,0,6.719-6.929,15.772-0.081
							c0,0,3.784,6.514,4.019,11.578c0,0,1.883-17.016-14.498-17.432c-16.355-0.415-16.365,23.55-7.921,30.71
							C221.001,235.298,217.05,229.278,219.817,224.388z"/>
						<path style="fill:#E4897B;" d="M221.369,226.403c-0.06-1.535-1.638-4.135-4.492-3.83c-2.954,0.316-4.375,6.375,2.967,7.849
							C220.898,230.633,221.495,229.605,221.369,226.403z"/>
						
							<path style="fill:none;stroke:#263238;stroke-width:0.708;stroke-linecap:round;stroke-linejoin:round;stroke-miterlimit:10;" d="
							M236.331,232.948c0,0-3.994,0.902-5.647-2.666"/>
						<path style="fill:#263238;" d="M223.629,210.522c0,0,10.889-4.835,18.096,1.55c0,0,2.831-8.404-6.826-11.271
							c-9.658-2.867-19.479,6.791-19.479,6.791L223.629,210.522z"/>
						<path style="fill:#263238;" d="M223.629,210.522c0,0-6.358,6.272-5.438,18.762c0.92,12.489-0.289,20.387-2.771,28.203
							c-2.482,7.816,4.014,10.149,4.014,10.149s-7.403,1.826-8.928-6.096c-1-5.197,1.38-16.459,0.182-29.874
							C209.49,218.251,214.274,208.772,223.629,210.522z"/>
					</g>
					<path style="opacity:0.2;enable-background:new    ;" d="M211.76,273.698h-2.11c-0.19-0.86-0.38-1.72-0.58-2.57l1.59-1.39
						l0.03-0.03C210.69,269.708,211.24,271.228,211.76,273.698z"/>
					<g>
						<path style="fill:#407BFF;" d="M210.67,273.698h-10.2v-14.03c1.67-1.5,3.09-2.6,4.12-3.17c0,0,0,0,0.01,0.01
							c0.28,0.1,4.68,1.81,5.55,7.2c0.3,1.86,0.45,4.01,0.51,6.03C210.7,271.158,210.69,272.528,210.67,273.698z"/>
						<path style="opacity:0.6;fill:#FFFFFF;enable-background:new    ;" d="M210.67,273.698h-10.2v-14.03
							c1.67-1.5,3.09-2.6,4.12-3.17c0,0,0,0,0.01,0.01c0.28,0.1,4.68,1.81,5.55,7.2c0.3,1.86,0.45,4.01,0.51,6.03
							C210.7,271.158,210.69,272.528,210.67,273.698z"/>
					</g>
				</g>
			</g>
			<rect x="197.471" y="286.632" style="opacity:0.3;enable-background:new    ;" width="64.178" height="85.099"/>
			<g>
				<path style="opacity:0.3;fill:#FFFFFF;enable-background:new    ;" d="M250.865,299.817H207.09
					c-1.051,0-1.904-0.852-1.904-1.904l0,0c0-1.051,0.852-1.904,1.904-1.904h43.775c1.051,0,1.904,0.852,1.904,1.904l0,0
					C252.768,298.965,251.916,299.817,250.865,299.817z"/>
				<path style="opacity:0.3;fill:#FFFFFF;enable-background:new    ;" d="M250.865,310.461H207.09
					c-1.051,0-1.904-0.852-1.904-1.904v0c0-1.051,0.852-1.904,1.904-1.904h43.775c1.051,0,1.904,0.852,1.904,1.904v0
					C252.768,309.609,251.916,310.461,250.865,310.461z"/>
				<path style="opacity:0.3;fill:#FFFFFF;enable-background:new    ;" d="M230.865,321.106H207.09
					c-1.051,0-1.904-0.852-1.904-1.904l0,0c0-1.051,0.852-1.904,1.904-1.904h23.775c1.051,0,1.904,0.852,1.904,1.904l0,0
					C232.768,320.254,231.916,321.106,230.865,321.106z"/>
				<path style="opacity:0.3;fill:#FFFFFF;enable-background:new    ;" d="M250.865,331.75H207.09c-1.051,0-1.904-0.852-1.904-1.904
					l0,0c0-1.051,0.852-1.904,1.904-1.904h43.775c1.051,0,1.904,0.852,1.904,1.904l0,0
					C252.768,330.898,251.916,331.75,250.865,331.75z"/>
				<path style="opacity:0.3;fill:#FFFFFF;enable-background:new    ;" d="M250.865,342.395H207.09
					c-1.051,0-1.904-0.852-1.904-1.904l0,0c0-1.051,0.852-1.904,1.904-1.904h43.775c1.051,0,1.904,0.852,1.904,1.904l0,0
					C252.768,341.542,251.916,342.395,250.865,342.395z"/>
				<path style="opacity:0.3;fill:#FFFFFF;enable-background:new    ;" d="M220.865,353.039H207.09
					c-1.051,0-1.904-0.852-1.904-1.904l0,0c0-1.051,0.852-1.904,1.904-1.904h13.775c1.051,0,1.904,0.852,1.904,1.904l0,0
					C222.768,352.187,221.916,353.039,220.865,353.039z"/>
				<path style="opacity:0.3;fill:#FFFFFF;enable-background:new    ;" d="M240.865,363.684H207.09
					c-1.051,0-1.904-0.852-1.904-1.904l0,0c0-1.051,0.852-1.904,1.904-1.904h33.775c1.051,0,1.904,0.852,1.904,1.904l0,0
					C242.768,362.831,241.916,363.684,240.865,363.684z"/>
			</g>
		</g>
	</g>
</g>
<g id="Plant">
	<g>
		<g>
			<g>
				<path style="fill:#263238;" d="M404.531,355.888c-1.676-0.69-3.435-0.521-5.231,0.508c-4.845,2.776-6.879,14.152-7.733,22.971
					c0.317-12.548,2.378-29.91,10.606-39.355l-0.754-0.656c-6.886,7.903-9.57,20.869-10.503,32.238
					c-0.123-4.839-0.427-10.083-1.065-15.077c0.219-10.705,1.148-20.429,3.596-23.74l-0.804-0.594
					c-2.16,2.921-3.202,10.336-3.625,19.037c-1.233-6.485-3.191-12.016-6.254-14.834l-0.677,0.736
					c3.667,3.372,5.677,11.053,6.746,19.555c-0.025,1.206-0.042,2.423-0.049,3.644c-0.957-4.974-2.232-9.111-3.929-10.761
					c-5.7-5.541-12.392-0.08-12.458-0.025l0.64,0.769c0.246-0.204,6.071-4.937,11.121-0.026c2.216,2.155,3.689,9.186,4.653,16.604
					c0.124,8.888,0.566,17.246,0.869,22.109c-0.038,0.764-0.066,1.204-0.069,1.246l0.149,0.01c0.109,1.683,0.19,2.763,0.21,3.038
					l0.884-0.067c0.048,0.613,0.085,1.022,0.098,1.156l0.995-0.098c-0.007-0.074-0.144-1.559-0.261-4.004l0.263,0.002
					c0.002-0.286,0.332-28.706,7.846-33.012c1.535-0.879,2.957-1.027,4.351-0.451c4.403,1.819,6.749,10.239,6.772,10.324
					l0.965-0.264C411.785,366.507,409.386,357.896,404.531,355.888z"/>
				<path style="fill:#263238;" d="M378.519,356.802c-4.368,0.306-7.751,6.214-7.894,6.465l0.871,0.492
					c0.032-0.057,3.262-5.693,7.094-5.96c1.614-0.103,3.145,0.768,4.56,2.615c5.901,7.703,4.713,29.607,4.701,29.828l0.998,0.057
					c0.053-0.914,1.221-22.496-4.905-30.492C382.31,357.675,380.476,356.656,378.519,356.802z"/>
			</g>
			<g style="opacity:0.2;enable-background:new    ;">
				<path style="fill:#FFFFFF;" d="M404.531,355.888c-1.676-0.69-3.435-0.521-5.231,0.508c-4.845,2.776-6.879,14.152-7.733,22.971
					c0.317-12.548,2.378-29.91,10.606-39.355l-0.754-0.656c-6.886,7.903-9.57,20.869-10.503,32.238
					c-0.123-4.839-0.427-10.083-1.065-15.077c0.219-10.705,1.148-20.429,3.596-23.74l-0.804-0.594
					c-2.16,2.921-3.202,10.336-3.625,19.037c-1.233-6.485-3.191-12.016-6.254-14.834l-0.677,0.736
					c3.667,3.372,5.677,11.053,6.746,19.555c-0.025,1.206-0.042,2.423-0.049,3.644c-0.957-4.974-2.232-9.111-3.929-10.761
					c-5.7-5.541-12.392-0.08-12.458-0.025l0.64,0.769c0.246-0.204,6.071-4.937,11.121-0.026c2.216,2.155,3.689,9.186,4.653,16.604
					c0.124,8.888,0.566,17.246,0.869,22.109c-0.038,0.764-0.066,1.204-0.069,1.246l0.149,0.01c0.109,1.683,0.19,2.763,0.21,3.038
					l0.884-0.067c0.048,0.613,0.085,1.022,0.098,1.156l0.995-0.098c-0.007-0.074-0.144-1.559-0.261-4.004l0.263,0.002
					c0.002-0.286,0.332-28.706,7.846-33.012c1.535-0.879,2.957-1.027,4.351-0.451c4.403,1.819,6.749,10.239,6.772,10.324
					l0.965-0.264C411.785,366.507,409.386,357.896,404.531,355.888z"/>
				<path style="fill:#FFFFFF;" d="M378.519,356.802c-4.368,0.306-7.751,6.214-7.894,6.465l0.871,0.492
					c0.032-0.057,3.262-5.693,7.094-5.96c1.614-0.103,3.145,0.768,4.56,2.615c5.901,7.703,4.713,29.607,4.701,29.828l0.998,0.057
					c0.053-0.914,1.221-22.496-4.905-30.492C382.31,357.675,380.476,356.656,378.519,356.802z"/>
			</g>
		</g>
		<g>
			<path style="fill:#263238;" d="M406.272,361.046c0,0-3.915,1.443-2.751,4.851c1.164,3.407,13.543,9.015,13.543,9.015
				s5.185-4.752,0.423-12.481C412.726,354.702,406.377,358.607,406.272,361.046z"/>
		</g>
		<g>
			<path style="fill:#263238;" d="M389.252,354.559c0,0,4.169-0.174,4.406,3.418c0.237,3.593-9.031,13.533-9.031,13.533
				s-6.614-2.391-5.194-11.357C380.854,351.188,388.216,352.349,389.252,354.559z"/>
		</g>
		<g>
			<path style="fill:#263238;" d="M385.723,337.361c0,0,2.779-0.298,2.556-1.991c-0.224-1.693-10.805-6.05-17.047,0.996
				c0,0,3.997,6.866,9.776,6.956C386.785,343.411,385.723,337.361,385.723,337.361z"/>
		</g>
		<g>
			<path style="fill:#263238;" d="M390.902,333.25c0,0-2.517,1.217-3.222-0.338c-0.705-1.555,5.97-10.849,14.995-8.171
				c0,0,0.239,7.941-4.617,11.074S390.902,333.25,390.902,333.25z"/>
		</g>
		<g>
			<path style="fill:#263238;" d="M377.742,359.676c0,0,1.918-1.549-0.152-2.305c-2.07-0.756-12.228-0.541-12.334,9.521
				c0,0,11.83,1.966,13.295-1.867C380.016,361.193,377.742,359.676,377.742,359.676z"/>
		</g>
		<g>
			<path style="fill:#263238;" d="M401.867,337.109c0,0-1.918-1.549,0.152-2.305c2.07-0.756,12.228-0.541,12.333,9.521
				c0,0-11.83,1.966-13.295-1.867C399.593,338.625,401.867,337.109,401.867,337.109z"/>
		</g>
		<g>
			<path style="fill:#263238;" d="M395.613,345.214c0,0-0.169-1.883,1.351-1.145s6.815,6.451,1.326,11.872
				c0,0-7.389-5.472-6.057-8.322C393.565,344.769,395.613,345.214,395.613,345.214z"/>
		</g>
		<g>
			<path style="fill:#263238;" d="M376.028,347.897c0,0,1.147-1.503-0.533-1.689c-1.679-0.186-9.205,1.823-7.453,9.336
				c0,0,9.169-0.689,9.562-3.81S376.028,347.897,376.028,347.897z"/>
		</g>
		<polygon style="fill:#407BFF;" points="407.003,418.162 375.544,418.162 372.15,383.719 410.397,383.719 		"/>
		<polygon style="opacity:0.2;fill:#FFFFFF;enable-background:new    ;" points="407.003,418.162 375.544,418.162 372.15,383.719 
			410.397,383.719 		"/>
		<rect x="370.471" y="379.919" style="fill:#407BFF;" width="41.606" height="7.6"/>
		<rect x="370.471" y="379.919" style="opacity:0.5;fill:#FFFFFF;enable-background:new    ;" width="41.606" height="7.6"/>
	</g>
</g>
</svg>
